<svg width="261" height="63" viewBox="0 0 261 63" fill="none" xmlns="http://www.w3.org/2000/svg">
<g clip-path="url(#clip0_124_1057)">
<mask id="mask0_124_1057" style="mask-type:luminance" maskUnits="userSpaceOnUse" x="0" y="0" width="261" height="63">
<path d="M260.602 0H0V62.1582H260.602V0Z" fill="white"/>
</mask>
<g mask="url(#mask0_124_1057)">
<path d="M260.602 0H0V62.1582H260.602V0Z" fill="white"/>
<path d="M16.0078 36.5391C24.1641 36.5391 29.9531 31.7109 30.6797 24.6328L30.7031 24.375H23.8125L23.7656 24.5625C23.0156 28.1719 20.0859 30.5391 16.0312 30.5391C10.6875 30.5391 7.38281 26.0391 7.38281 18.7734V18.7266C7.38281 11.4609 10.6875 6.98438 16.0078 6.98438C20.0391 6.98438 23.0625 9.5625 23.7891 13.3594V13.5234H30.6797V13.2422C30.0234 6.09375 24.0234 0.984375 16.0078 0.984375C6.1875 0.984375 0.140625 7.75781 0.140625 18.7266V18.7734C0.140625 29.7422 6.21094 36.5391 16.0078 36.5391Z" fill="black"/>
<path d="M36.7734 35.6719H43.6172V20.7422C43.6172 17.25 45.5391 14.9766 48.7031 14.9766C51.9375 14.9766 53.4375 16.8984 53.4375 20.5312V35.6719H60.2812V18.9844C60.2812 12.8203 57.1875 9.30469 51.4453 9.30469C47.7656 9.30469 45.2109 11.0625 44.0391 13.8516H43.6172V0H36.7734V35.6719Z" fill="black"/>
<path d="M73.9453 36.0703C77.3203 36.0703 80.0391 34.6406 81.3516 32.25H81.7734V35.6719H88.5234V18.0469C88.5234 12.5391 84.6562 9.30469 77.8125 9.30469C71.3203 9.30469 67.0547 12.3047 66.5156 16.8281L66.4922 17.0391H72.8203L72.8672 16.9453C73.4062 15.4219 74.9766 14.5547 77.4375 14.5547C80.25 14.5547 81.7734 15.8203 81.7734 18.0469V20.1797L75.5391 20.5547C69.1172 20.9297 65.5312 23.6484 65.5312 28.2891V28.3359C65.5312 33.0234 69.0234 36.0703 73.9453 36.0703ZM72.2109 27.9141V27.8672C72.2109 25.9922 73.6406 24.8906 76.5703 24.7031L81.7734 24.375V26.2734C81.7734 28.9922 79.4062 31.0781 76.2422 31.0781C73.875 31.0781 72.2109 29.8828 72.2109 27.9141Z" fill="black"/>
<path d="M93.1172 31.6406C92.9609 31.6719 92.8203 31.5625 92.6953 31.3125C92.5703 31.0312 92.4297 30.7656 92.2734 30.5156H92.7891C92.5703 29.8281 92.5078 29.2031 92.6016 28.6406C92.7266 28.0469 92.8672 27.4844 93.0234 26.9531C93.1797 26.3906 93.3047 25.8594 93.3984 25.3594C93.5234 24.8281 93.4766 24.2812 93.2578 23.7188C93.4141 23.8125 93.5234 23.7812 93.5859 23.625C93.6797 23.4375 93.7422 23.2188 93.7734 22.9688C93.8359 22.6875 93.8516 22.4062 93.8203 22.125C93.8203 21.8125 93.8047 21.5625 93.7734 21.375C94.1797 20.4062 94.4922 19.4062 94.7109 18.375C94.9609 17.3438 95.1797 16.3281 95.3672 15.3281C95.5547 14.2969 95.7578 13.3125 95.9766 12.375C96.2266 11.4062 96.5391 10.5 96.9141 9.65625C97.3516 9.59375 97.8047 9.65625 98.2734 9.84375C98.7734 10 99.1016 10.2031 99.2578 10.4531C100.227 9.70312 101.086 8.79688 101.836 7.73438C102.586 6.67188 103.336 5.64062 104.086 4.64062C104.867 3.60938 105.742 2.70312 106.711 1.92188C107.68 1.14062 108.883 0.671875 110.32 0.515625C111.07 1.04688 111.914 1.625 112.852 2.25C113.789 2.84375 114.555 3.59375 115.148 4.5C115.398 4.65625 115.633 4.82812 115.852 5.01562C116.102 5.17188 116.352 5.32812 116.602 5.48438V6.1875C117.039 6.59375 117.398 7.07812 117.68 7.64062C117.992 8.17188 118.258 8.75 118.477 9.375C118.727 9.96875 118.961 10.5781 119.18 11.2031C119.398 11.8281 119.648 12.4062 119.93 12.9375C119.867 13.125 119.836 13.2969 119.836 13.4531C119.867 13.5781 119.898 13.7188 119.93 13.875C119.992 14 120.039 14.1562 120.07 14.3438C120.102 14.5 120.117 14.7031 120.117 14.9531C119.992 16.6094 119.445 17.9531 118.477 18.9844C117.539 19.9844 116.383 20.8125 115.008 21.4688C113.664 22.0938 112.227 22.6406 110.695 23.1094C109.164 23.5469 107.773 24.0312 106.523 24.5625C106.523 24.6875 106.586 24.75 106.711 24.75C106.867 24.75 106.914 24.8438 106.852 25.0312C107.789 25.5938 108.508 26.0469 109.008 26.3906C109.539 26.7344 110.023 27.0312 110.461 27.2812C110.93 27.5 111.43 27.6875 111.961 27.8438C112.523 28 113.289 28.1875 114.258 28.4062C115.227 28.625 115.977 28.8125 116.508 28.9688C117.07 29.0938 117.57 29.2031 118.008 29.2969C118.445 29.3594 118.914 29.4219 119.414 29.4844C119.914 29.5469 120.586 29.625 121.43 29.7188C121.773 30.0625 122.055 30.4688 122.273 30.9375C122.492 31.4062 122.648 31.875 122.742 32.3438C122.836 32.8125 122.852 33.2656 122.789 33.7031C122.758 34.1094 122.633 34.4375 122.414 34.6875C122.445 34.8125 122.523 34.875 122.648 34.875C122.805 34.8438 122.961 34.8438 123.117 34.875C122.898 35.0312 122.711 35.2188 122.555 35.4375C122.398 35.6562 122.242 35.875 122.086 36.0938C121.93 36.3125 121.742 36.5156 121.523 36.7031C121.336 36.8906 121.086 37 120.773 37.0312C119.648 37.4688 118.211 37.4844 116.461 37.0781C114.711 36.6719 112.477 35.9531 109.758 34.9219C108.414 34.4219 107.32 33.9688 106.477 33.5625C105.633 33.1562 104.898 32.7656 104.273 32.3906C103.648 31.9844 103.07 31.5625 102.539 31.125C102.008 30.6562 101.398 30.1094 100.711 29.4844C100.617 29.5156 100.555 29.5781 100.523 29.6719C100.523 29.7656 100.477 29.8281 100.383 29.8594C100.227 31.1094 99.9766 32.125 99.6328 32.9062C99.3203 33.6875 98.8516 34.4844 98.2266 35.2969C97.7266 35.2031 97.3828 35.25 97.1953 35.4375C97.0391 35.625 96.8359 35.7969 96.5859 35.9531C96.2734 36.0156 96.0391 36 95.8828 35.9062C95.7266 35.8438 95.5859 35.7656 95.4609 35.6719C95.3359 35.5781 95.1953 35.4844 95.0391 35.3906C94.8828 35.2969 94.6328 35.2656 94.2891 35.2969C94.1953 35.0156 94.1016 34.75 94.0078 34.5C93.9141 34.2188 93.6641 34.0938 93.2578 34.125C93.3516 33.8438 93.3828 33.6094 93.3516 33.4219C93.3203 33.2031 93.2734 33.0156 93.2109 32.8594C93.1484 32.6719 93.0859 32.4844 93.0234 32.2969C92.9922 32.1094 93.0234 31.8906 93.1172 31.6406ZM108.773 10.2188C108.367 10.8125 107.914 11.3594 107.414 11.8594C106.914 12.3281 106.414 12.8281 105.914 13.3594C105.445 13.8594 105.023 14.4219 104.648 15.0469C104.273 15.6406 104.008 16.3594 103.852 17.2031C105.164 17.0469 106.539 16.6875 107.977 16.125C109.414 15.5312 110.773 14.9688 112.055 14.4375C111.898 13.2812 111.492 12.3594 110.836 11.6719C110.18 10.9531 109.492 10.4688 108.773 10.2188Z" fill="#FF2D55"/>
<path d="M132.773 32.3906C132.93 33.3281 132.867 34.0625 132.586 34.5938C132.336 35.125 131.961 35.5156 131.461 35.7656C130.992 36.0469 130.445 36.2031 129.82 36.2344C129.195 36.2656 128.602 36.2344 128.039 36.1406C127.727 35.7031 127.445 35.1562 127.195 34.5C126.945 33.8438 126.711 33.1719 126.492 32.4844C126.273 31.7656 126.07 31.0625 125.883 30.375C125.727 29.6875 125.586 29.0781 125.461 28.5469C125.617 28.1719 125.711 27.75 125.742 27.2812C125.805 26.7812 125.836 26.2812 125.836 25.7812C125.867 25.2812 125.883 24.7812 125.883 24.2812C125.914 23.75 125.961 23.25 126.023 22.7812C126.242 21.4688 126.555 20.2188 126.961 19.0312C127.398 17.8438 127.742 16.6094 127.992 15.3281C128.055 15.0469 128.023 14.7812 127.898 14.5312C127.805 14.2812 127.789 14.0469 127.852 13.8281C127.883 13.7031 127.977 13.625 128.133 13.5938C128.289 13.5312 128.383 13.4219 128.414 13.2656C128.508 12.9219 128.523 12.6406 128.461 12.4219C128.43 12.2031 128.492 11.9375 128.648 11.625C128.805 11.375 128.992 11.0156 129.211 10.5469C129.461 10.0469 129.555 9.53125 129.492 9C129.773 8.8125 130.039 8.59375 130.289 8.34375C130.539 8.09375 130.789 7.875 131.039 7.6875C131.32 7.46875 131.617 7.28125 131.93 7.125C132.273 6.96875 132.68 6.89062 133.148 6.89062C133.398 7.20312 133.555 7.54688 133.617 7.92188C133.711 8.29688 133.789 8.67188 133.852 9.04688C133.945 9.42188 134.07 9.78125 134.227 10.125C134.383 10.4375 134.648 10.6875 135.023 10.875C135.023 11.125 135.023 11.4375 135.023 11.8125C135.023 12.1875 135.039 12.5625 135.07 12.9375C135.102 13.2812 135.164 13.6094 135.258 13.9219C135.383 14.2031 135.57 14.3906 135.82 14.4844C135.258 15.9844 134.727 17.4688 134.227 18.9375C133.758 20.4062 133.367 21.8906 133.055 23.3906C132.742 24.8594 132.539 26.3438 132.445 27.8438C132.383 29.3438 132.492 30.8594 132.773 32.3906Z" fill="#FF2D55"/>
<path d="M143.273 37.5C143.117 37.4375 142.945 37.375 142.758 37.3125L142.195 36.2812L141.445 36.8438C141.227 36.7188 141.055 36.5938 140.93 36.4688C140.805 36.375 140.664 36.25 140.508 36.0938C140.164 35.8438 139.867 35.5938 139.617 35.3438C139.367 35.0625 139.227 34.7969 139.195 34.5469L139.148 34.0781L138.68 33.9844C138.523 33.5469 138.398 33.2344 138.305 33.0469C138.211 32.8281 138.055 32.6562 137.836 32.5312C137.648 30.9688 137.711 29.6719 138.023 28.6406C138.336 27.5781 138.805 26.4531 139.43 25.2656C139.805 25.1406 140.133 24.9688 140.414 24.75C140.727 24.5312 141.008 24.3125 141.258 24.0938C141.508 23.875 141.758 23.6875 142.008 23.5312C142.258 23.3438 142.492 23.2344 142.711 23.2031L143.133 22.9688C143.664 22.3438 144.305 21.7969 145.055 21.3281C145.805 20.8281 146.586 20.3281 147.398 19.8281C148.055 19.4531 148.711 19.0625 149.367 18.6562C150.055 18.2188 150.664 17.75 151.195 17.25C151.445 17.2812 151.664 17.2344 151.852 17.1094C151.977 16.9531 152.039 16.75 152.039 16.5C152.102 16.4375 152.164 16.3906 152.227 16.3594C152.32 16.2969 152.398 16.2344 152.461 16.1719C152.68 16.0156 152.977 15.8281 153.352 15.6094C153.727 15.3906 153.977 15.1094 154.102 14.7656L155.133 13.7812L153.727 13.8281C153.008 13.8594 152.242 13.9062 151.43 13.9688C150.648 14.0312 149.977 14.0938 149.414 14.1562C148.945 14.2188 148.461 14.2656 147.961 14.2969C147.461 14.2969 146.914 14.3125 146.32 14.3438C145.352 13.7188 144.648 12.7969 144.211 11.5781C143.805 10.3281 143.789 9.10938 144.164 7.92188C144.383 7.89062 144.57 7.84375 144.727 7.78125C144.883 7.6875 145.039 7.60938 145.195 7.54688C145.477 7.51562 145.664 7.51562 145.758 7.54688C145.852 7.57812 145.977 7.59375 146.133 7.59375C147.008 7.4375 147.727 7.34375 148.289 7.3125C148.883 7.25 149.43 7.21875 149.93 7.21875C150.461 7.21875 150.977 7.25 151.477 7.3125C151.977 7.34375 152.461 7.4375 152.93 7.59375C154.023 7.59375 155.133 7.54688 156.258 7.45312C157.383 7.35938 158.539 7.4375 159.727 7.6875C160.57 7.40625 161.398 7.32812 162.211 7.45312C163.055 7.57812 163.789 7.95312 164.414 8.57812C164.445 9.10938 164.57 9.51562 164.789 9.79688C165.039 10.0469 165.352 10.2344 165.727 10.3594C165.977 11.2656 165.992 12.0625 165.773 12.75C165.586 13.4375 165.258 14.0469 164.789 14.5781C164.32 15.1094 163.758 15.5938 163.102 16.0312C162.477 16.4375 161.852 16.8281 161.227 17.2031C161.039 17.4844 160.805 17.7188 160.523 17.9062C160.273 18.0625 160.039 18.2656 159.82 18.5156C158.789 19.8281 157.602 20.9844 156.258 21.9844C154.945 22.9531 153.586 23.8906 152.18 24.7969C151.18 25.4531 150.18 26.125 149.18 26.8125C148.211 27.4688 147.273 28.1875 146.367 28.9688L145.898 29.3906L146.32 29.8594C146.695 30.2344 147.133 30.4219 147.633 30.4219C147.914 30.4219 148.18 30.3906 148.43 30.3281C148.711 30.2344 148.977 30.1406 149.227 30.0469C149.477 29.9844 149.695 29.9219 149.883 29.8594C150.07 29.7656 150.242 29.7188 150.398 29.7188H151.008C151.258 29.5625 151.508 29.4375 151.758 29.3438C152.008 29.25 152.258 29.1719 152.508 29.1094C152.758 29.0469 152.992 28.9844 153.211 28.9219C153.43 28.8594 153.664 28.75 153.914 28.5938C154.602 28.5938 155.242 28.5 155.836 28.3125C156.461 28.125 157.086 27.9062 157.711 27.6562C158.086 27.5 158.445 27.3594 158.789 27.2344C159.164 27.1094 159.539 27.0156 159.914 26.9531C160.039 27.1094 160.18 27.25 160.336 27.375C160.523 27.4688 160.695 27.5625 160.852 27.6562C161.258 27.9062 161.477 28.1406 161.508 28.3594L161.648 29.6719L162.539 28.7812C162.914 29.0938 163.117 29.4531 163.148 29.8594C163.18 30.2344 163.133 30.7344 163.008 31.3594C162.008 32.3594 160.758 33.1406 159.258 33.7031C157.758 34.2656 156.164 34.8125 154.477 35.3438C154.133 35.4375 153.773 35.5312 153.398 35.625C153.055 35.7188 152.711 35.8281 152.367 35.9531L152.414 35.1562L151.383 35.8125C151.258 35.9062 151.148 36 151.055 36.0938C150.992 36.1875 150.93 36.2812 150.867 36.375C150.055 36.5938 149.383 36.75 148.852 36.8438C148.32 36.9375 147.82 37.0312 147.352 37.125C146.82 37.25 146.32 37.3438 145.852 37.4062C145.383 37.5 144.883 37.5469 144.352 37.5469C144.195 37.5469 144.023 37.5469 143.836 37.5469C143.648 37.5469 143.461 37.5312 143.273 37.5Z" fill="#FF2D55"/>
<path d="M169.57 37.5C169.414 37.4375 169.242 37.375 169.055 37.3125L168.492 36.2812L167.742 36.8438C167.523 36.7188 167.352 36.5938 167.227 36.4688C167.102 36.375 166.961 36.25 166.805 36.0938C166.461 35.8438 166.164 35.5938 165.914 35.3438C165.664 35.0625 165.523 34.7969 165.492 34.5469L165.445 34.0781L164.977 33.9844C164.82 33.5469 164.695 33.2344 164.602 33.0469C164.508 32.8281 164.352 32.6562 164.133 32.5312C163.945 30.9688 164.008 29.6719 164.32 28.6406C164.633 27.5781 165.102 26.4531 165.727 25.2656C166.102 25.1406 166.43 24.9688 166.711 24.75C167.023 24.5312 167.305 24.3125 167.555 24.0938C167.805 23.875 168.055 23.6875 168.305 23.5312C168.555 23.3438 168.789 23.2344 169.008 23.2031L169.43 22.9688C169.961 22.3438 170.602 21.7969 171.352 21.3281C172.102 20.8281 172.883 20.3281 173.695 19.8281C174.352 19.4531 175.008 19.0625 175.664 18.6562C176.352 18.2188 176.961 17.75 177.492 17.25C177.742 17.2812 177.961 17.2344 178.148 17.1094C178.273 16.9531 178.336 16.75 178.336 16.5C178.398 16.4375 178.461 16.3906 178.523 16.3594C178.617 16.2969 178.695 16.2344 178.758 16.1719C178.977 16.0156 179.273 15.8281 179.648 15.6094C180.023 15.3906 180.273 15.1094 180.398 14.7656L181.43 13.7812L180.023 13.8281C179.305 13.8594 178.539 13.9062 177.727 13.9688C176.945 14.0312 176.273 14.0938 175.711 14.1562C175.242 14.2188 174.758 14.2656 174.258 14.2969C173.758 14.2969 173.211 14.3125 172.617 14.3438C171.648 13.7188 170.945 12.7969 170.508 11.5781C170.102 10.3281 170.086 9.10938 170.461 7.92188C170.68 7.89062 170.867 7.84375 171.023 7.78125C171.18 7.6875 171.336 7.60938 171.492 7.54688C171.773 7.51562 171.961 7.51562 172.055 7.54688C172.148 7.57812 172.273 7.59375 172.43 7.59375C173.305 7.4375 174.023 7.34375 174.586 7.3125C175.18 7.25 175.727 7.21875 176.227 7.21875C176.758 7.21875 177.273 7.25 177.773 7.3125C178.273 7.34375 178.758 7.4375 179.227 7.59375C180.32 7.59375 181.43 7.54688 182.555 7.45312C183.68 7.35938 184.836 7.4375 186.023 7.6875C186.867 7.40625 187.695 7.32812 188.508 7.45312C189.352 7.57812 190.086 7.95312 190.711 8.57812C190.742 9.10938 190.867 9.51562 191.086 9.79688C191.336 10.0469 191.648 10.2344 192.023 10.3594C192.273 11.2656 192.289 12.0625 192.07 12.75C191.883 13.4375 191.555 14.0469 191.086 14.5781C190.617 15.1094 190.055 15.5938 189.398 16.0312C188.773 16.4375 188.148 16.8281 187.523 17.2031C187.336 17.4844 187.102 17.7188 186.82 17.9062C186.57 18.0625 186.336 18.2656 186.117 18.5156C185.086 19.8281 183.898 20.9844 182.555 21.9844C181.242 22.9531 179.883 23.8906 178.477 24.7969C177.477 25.4531 176.477 26.125 175.477 26.8125C174.508 27.4688 173.57 28.1875 172.664 28.9688L172.195 29.3906L172.617 29.8594C172.992 30.2344 173.43 30.4219 173.93 30.4219C174.211 30.4219 174.477 30.3906 174.727 30.3281C175.008 30.2344 175.273 30.1406 175.523 30.0469C175.773 29.9844 175.992 29.9219 176.18 29.8594C176.367 29.7656 176.539 29.7188 176.695 29.7188H177.305C177.555 29.5625 177.805 29.4375 178.055 29.3438C178.305 29.25 178.555 29.1719 178.805 29.1094C179.055 29.0469 179.289 28.9844 179.508 28.9219C179.727 28.8594 179.961 28.75 180.211 28.5938C180.898 28.5938 181.539 28.5 182.133 28.3125C182.758 28.125 183.383 27.9062 184.008 27.6562C184.383 27.5 184.742 27.3594 185.086 27.2344C185.461 27.1094 185.836 27.0156 186.211 26.9531C186.336 27.1094 186.477 27.25 186.633 27.375C186.82 27.4688 186.992 27.5625 187.148 27.6562C187.555 27.9062 187.773 28.1406 187.805 28.3594L187.945 29.6719L188.836 28.7812C189.211 29.0938 189.414 29.4531 189.445 29.8594C189.477 30.2344 189.43 30.7344 189.305 31.3594C188.305 32.3594 187.055 33.1406 185.555 33.7031C184.055 34.2656 182.461 34.8125 180.773 35.3438C180.43 35.4375 180.07 35.5312 179.695 35.625C179.352 35.7188 179.008 35.8281 178.664 35.9531L178.711 35.1562L177.68 35.8125C177.555 35.9062 177.445 36 177.352 36.0938C177.289 36.1875 177.227 36.2812 177.164 36.375C176.352 36.5938 175.68 36.75 175.148 36.8438C174.617 36.9375 174.117 37.0312 173.648 37.125C173.117 37.25 172.617 37.3438 172.148 37.4062C171.68 37.5 171.18 37.5469 170.648 37.5469C170.492 37.5469 170.32 37.5469 170.133 37.5469C169.945 37.5469 169.758 37.5312 169.57 37.5Z" fill="#FF2D55"/>
<path d="M194.227 35.6719H201.07V20.1094C201.07 17.1562 202.945 14.9766 205.617 14.9766C208.289 14.9766 209.859 16.5938 209.859 19.3594V35.6719H216.703V19.8047C216.703 17.0156 218.484 14.9766 221.25 14.9766C224.109 14.9766 225.516 16.5469 225.516 19.6641V35.6719H232.359V17.9531C232.359 12.6328 229.148 9.30469 224.016 9.30469C220.406 9.30469 217.406 11.2031 216.234 14.0625H215.812C214.758 11.0859 212.156 9.30469 208.641 9.30469C205.266 9.30469 202.594 10.9922 201.492 13.8984H201.07V9.86719H194.227V35.6719Z" fill="black"/>
<path d="M246.023 36.0703C249.398 36.0703 252.117 34.6406 253.43 32.25H253.852V35.6719H260.602V18.0469C260.602 12.5391 256.734 9.30469 249.891 9.30469C243.398 9.30469 239.133 12.3047 238.594 16.8281L238.57 17.0391H244.898L244.945 16.9453C245.484 15.4219 247.055 14.5547 249.516 14.5547C252.328 14.5547 253.852 15.8203 253.852 18.0469V20.1797L247.617 20.5547C241.195 20.9297 237.609 23.6484 237.609 28.2891V28.3359C237.609 33.0234 241.102 36.0703 246.023 36.0703ZM244.289 27.9141V27.8672C244.289 25.9922 245.719 24.8906 248.648 24.7031L253.852 24.375V26.2734C253.852 28.9922 251.484 31.0781 248.32 31.0781C245.953 31.0781 244.289 29.8828 244.289 27.9141Z" fill="black"/>
<path d="M2.73438 62.1582H3.84766C2.34375 60.2148 1.30859 56.377 1.30859 53.0566C1.30859 49.7656 2.34375 45.918 3.84766 43.9648H2.73438C0.869141 46.3965 0 49.5605 0 53.0566C0 56.5723 0.878906 59.7266 2.73438 62.1582Z" fill="black"/>
<path d="M8.59375 58.6719H9.94141L12.5293 49.9414H12.6562L15.2441 58.6719H16.6016L19.5996 48.1543H18.3105L15.957 57.0801H15.8398L13.2422 48.1543H11.9629L9.36523 57.0801H9.24805L6.91406 48.1543H5.61523L8.59375 58.6719Z" fill="black"/>
<path d="M22.6172 45.9668C23.1348 45.9668 23.5645 45.5469 23.5645 45.0195C23.5645 44.4922 23.1348 44.0723 22.6172 44.0723C22.0898 44.0723 21.6602 44.4922 21.6602 45.0195C21.6602 45.5469 22.0898 45.9668 22.6172 45.9668ZM21.9629 58.6719H23.252V48.1543H21.9629V58.6719Z" fill="black"/>
<path d="M30.0879 58.7402C30.4004 58.7402 30.6934 58.7109 30.9863 58.6621V57.5488C30.7227 57.5781 30.5273 57.5879 30.2344 57.5879C29.043 57.5879 28.584 57.0508 28.584 55.7617V49.2383H30.9863V48.1543H28.584V45.4199H27.2461V48.1543H25.5566V49.2383H27.2461V56.0547C27.2461 57.9688 28.0762 58.7402 30.0879 58.7402Z" fill="black"/>
<path d="M33.7793 58.6719H35.0684V52.4219C35.0684 50.4395 36.3281 49.1309 38.1836 49.1309C40 49.1309 40.918 50.1562 40.918 52.1582V58.6719H42.207V51.8359C42.207 49.3848 40.8691 47.9785 38.5254 47.9785C36.8848 47.9785 35.752 48.7207 35.1953 50H35.0684V43.9648H33.7793V58.6719Z" fill="black"/>
<path d="M50.8105 58.6719H52.0996V52.1094C52.0996 50.4102 53.3105 49.209 54.9512 49.209C55.3516 49.209 55.6934 49.248 56.0742 49.3457V48.0762C55.8203 48.0176 55.4688 47.9785 55.0879 47.9785C53.6621 47.9785 52.6367 48.6816 52.2266 49.8828H52.0996V48.1543H50.8105V58.6719Z" fill="black"/>
<path d="M58.9844 45.9668C59.502 45.9668 59.9316 45.5469 59.9316 45.0195C59.9316 44.4922 59.502 44.0723 58.9844 44.0723C58.457 44.0723 58.0273 44.4922 58.0273 45.0195C58.0273 45.5469 58.457 45.9668 58.9844 45.9668ZM58.3301 58.6719H59.6191V48.1543H58.3301V58.6719Z" fill="black"/>
<path d="M62.6074 58.6719H70.6055V57.5879H64.1602V57.4707L70.5859 49.1406V48.1543H62.6172V49.2383H69.0527V49.3555L62.6074 57.6953V58.6719Z" fill="black"/>
<path d="M73.1738 58.6719H81.1719V57.5879H74.7266V57.4707L81.1523 49.1406V48.1543H73.1836V49.2383H79.6191V49.3555L73.1738 57.6953V58.6719Z" fill="black"/>
<path d="M84.6777 62.1582C86.5332 59.7266 87.4121 56.5723 87.4121 53.0566C87.4121 49.5605 86.543 46.3965 84.6777 43.9648H83.5645C85.0684 45.918 86.1035 49.7656 86.1035 53.0566C86.1035 56.377 85.0684 60.2148 83.5645 62.1582H84.6777Z" fill="black"/>
</g>
</g>
<defs>
<clipPath id="clip0_124_1057">
<rect width="261" height="63" fill="white"/>
</clipPath>
</defs>
</svg>
